<svg width="120" height="120" viewBox="0 0 120 120" xmlns="http://www.w3.org/2000/svg">
  <defs>
    <linearGradient id="gradient4" x1="0%" y1="0%" x2="100%" y2="100%">
      <stop offset="0%" style="stop-color:#43e97b;stop-opacity:1" />
      <stop offset="100%" style="stop-color:#38f9d7;stop-opacity:1" />
    </linearGradient>
    <filter id="shadow4" x="-20%" y="-20%" width="140%" height="140%">
      <feDropShadow dx="0" dy="2" stdDeviation="4" flood-color="rgba(0,0,0,0.2)"/>
    </filter>
  </defs>
  
  <!-- Background rounded rectangle -->
  <rect width="120" height="120" rx="26" ry="26" fill="url(#gradient4)"/>
  
  <!-- Crescent moon -->
  <path d="M65 38C50.6 38 39 49.6 39 64s11.6 26 26 26c14.4 0 26-11.6 26-26 0-2.5-0.3-4.9-0.9-7.2-4 8.1-12.3 13.7-22 13.7-13.4 0-24.2-10.8-24.2-24.2 0-9.7 5.6-18 13.7-22C55.4 38.3 53 38 50.5 38z" 
        fill="white" 
        filter="url(#shadow4)"/>
  
  <!-- Small stars -->
  <circle cx="48" cy="52" r="1.5" fill="white" opacity="0.8"/>
  <circle cx="44" cy="60" r="1" fill="white" opacity="0.6"/>
  <circle cx="50" cy="68" r="1.2" fill="white" opacity="0.7"/>
</svg>